<svg width="19" height="23" viewBox="0 0 19 23" fill="none" xmlns="http://www.w3.org/2000/svg">
<path d="M13.5 3.08334H15.5833C16.1359 3.08334 16.6658 3.30284 17.0565 3.69354C17.4472 4.08424 17.6667 4.61414 17.6667 5.16668V19.75C17.6667 20.3025 17.4472 20.8324 17.0565 21.2231C16.6658 21.6138 16.1359 21.8333 15.5833 21.8333H3.08333C2.5308 21.8333 2.00089 21.6138 1.61019 21.2231C1.21949 20.8324 1 20.3025 1 19.75V5.16668C1 4.61414 1.21949 4.08424 1.61019 3.69354C2.00089 3.30284 2.5308 3.08334 3.08333 3.08334H5.16667" stroke="#808080" stroke-width="1.16667" stroke-linecap="round" stroke-linejoin="round"/>
<path d="M12.4583 1H6.20829C5.633 1 5.16663 1.46637 5.16663 2.04167V4.125C5.16663 4.7003 5.633 5.16667 6.20829 5.16667H12.4583C13.0336 5.16667 13.5 4.7003 13.5 4.125V2.04167C13.5 1.46637 13.0336 1 12.4583 1Z" stroke="#808080" stroke-width="1.16667" stroke-linecap="round" stroke-linejoin="round"/>
<path d="M12.9048 10.5238L7.99404 15.4345L5.7619 13.2024" stroke="#808080" stroke-width="1.16667" stroke-linecap="round" stroke-linejoin="round"/>
</svg>
