<svg width="23" height="19" viewBox="0 0 23 19" fill="none" xmlns="http://www.w3.org/2000/svg">
<path d="M21.8333 9.33334H1" stroke="#F74342" stroke-width="1.16667" stroke-linecap="round" stroke-linejoin="round"/>
<path d="M4.59375 2.15625L1 9.33333V15.5833C1 16.1359 1.21949 16.6658 1.61019 17.0565C2.00089 17.4472 2.5308 17.6667 3.08333 17.6667H19.75C20.3025 17.6667 20.8324 17.4472 21.2231 17.0565C21.6138 16.6658 21.8333 16.1359 21.8333 15.5833V9.33333L18.2396 2.15625C18.0671 1.80915 17.8012 1.51705 17.4718 1.31279C17.1424 1.10853 16.7626 1.00021 16.375 1H6.45833C6.07074 1.00021 5.6909 1.10853 5.3615 1.31279C5.03211 1.51705 4.76623 1.80915 4.59375 2.15625V2.15625Z" stroke="#F74342" stroke-width="1.16667" stroke-linecap="round" stroke-linejoin="round"/>
<circle cx="4.91669" cy="13.8333" r="0.5" fill="url(#paint0_linear)" stroke="#F74342"/>
<circle cx="7.91669" cy="13.8333" r="0.5" fill="url(#paint1_linear)" stroke="#F74342"/>
<defs>
<linearGradient id="paint0_linear" x1="4.91669" y1="12.8333" x2="4.91669" y2="14.8333" gradientUnits="userSpaceOnUse">
<stop stop-color="#FE6369"/>
<stop offset="1" stop-color="#EC1C24"/>
</linearGradient>
<linearGradient id="paint1_linear" x1="7.91669" y1="12.8333" x2="7.91669" y2="14.8333" gradientUnits="userSpaceOnUse">
<stop stop-color="#FE6369"/>
<stop offset="1" stop-color="#EC1C24"/>
</linearGradient>
</defs>
</svg>
