<svg width="17" height="23" viewBox="0 0 17 23" fill="none" xmlns="http://www.w3.org/2000/svg">
<path d="M8.41954 11.1633C5.75499 10.9616 3.64876 8.72958 3.64901 6.01409L8.41954 11.1633ZM8.41954 11.1633V18.1159C8.41954 18.3331 8.59571 18.5092 8.81285 18.5092C9.02988 18.5092 9.20616 18.3334 9.20616 18.1159V11.1633C11.8707 10.9616 13.9772 8.72958 13.9772 6.01409C13.9772 3.16646 11.6607 0.85 8.81311 0.85C5.96548 0.85 3.64902 3.16645 3.64901 6.01408L8.41954 11.1633ZM8.81285 1.63637C11.2265 1.63637 13.1906 3.60023 13.1906 6.01409C13.1906 8.42771 11.227 10.3916 8.81336 10.3918H8.81334H8.81333H8.81333H8.81332H8.81331H8.8133H8.8133H8.81329H8.81328H8.81327H8.81327H8.81326H8.81325H8.81324H8.81324H8.81323H8.81322H8.81322H8.81321H8.8132H8.81319H8.81319H8.81318H8.81317H8.81316H8.81316H8.81315H8.81314H8.81313H8.81313H8.81312H8.81311H8.8131H8.8131H8.81309H8.81308H8.81307H8.81307H8.81306H8.81305H8.81304H8.81304H8.81303H8.81302H8.81302H8.81301H8.813H8.81299H8.81299H8.81298H8.81297H8.81296H8.81296H8.81295H8.81294H8.81293H8.81292H8.81292H8.81291H8.8129H8.81289H8.81289H8.81288H8.81287H8.81286H8.81286H8.81285H8.81284H8.81283H8.81283H8.81282H8.81281H8.8128H8.8128H8.81279H8.81278H8.81277H8.81277H8.81276H8.81275H8.81274H8.81274H8.81273H8.81272H8.81272H8.81271H8.8127H8.81269H8.81269H8.81268H8.81267H8.81266H8.81265H8.81265H8.81264H8.81263H8.81263H8.81262H8.81261H8.8126H8.8126H8.81259H8.81258H8.81257H8.81257H8.81256H8.81255H8.81254H8.81254H8.81253H8.81252H8.81251H8.81251H8.8125H8.81249H8.81249H8.81248H8.81247H8.81246H8.81245H8.81245H8.81244H8.81243H8.81242H8.81242H8.81241H8.8124H8.81239H8.81239H8.81238H8.81237H8.81236H8.81236C6.39874 10.3916 4.43513 8.42771 4.43513 6.01409C4.43513 3.60048 6.39924 1.63637 8.81285 1.63637Z" fill="#808080" stroke="#808080" stroke-width="0.3"/>
<path d="M8.81283 3.32118C10.2976 3.32118 11.5057 4.52931 11.5057 6.01409C11.5057 6.23113 11.6816 6.40741 11.8991 6.40741C12.1162 6.40741 12.2924 6.23122 12.2924 6.01409C12.2924 4.09529 10.7316 2.53456 8.81283 2.53456C8.5957 2.53456 8.41952 2.71073 8.41952 2.92787C8.41952 3.14501 8.5957 3.32118 8.81283 3.32118Z" fill="#808080" stroke="#808080" stroke-width="0.3"/>
<path d="M13.9792 20.6411L13.9792 20.641C15.3062 19.9292 15.9888 19.0252 15.9888 18.1159C15.9888 17.312 15.4373 16.4911 14.3697 15.8181L14.4496 15.6912L14.3697 15.8181C13.2771 15.1295 11.7495 14.6603 10.0658 14.5053L13.9792 20.6411ZM13.9792 20.6411C12.611 21.3751 10.7765 21.7836 8.81258 21.7836C6.84868 21.7836 5.01414 21.3751 3.646 20.6411L3.64599 20.641M13.9792 20.6411L3.64599 20.641M3.64599 20.641C2.31891 19.9292 1.63637 19.0252 1.63637 18.1159M3.64599 20.641L1.63637 18.1159M14.351 21.3338L14.351 21.3338C12.8601 22.1336 10.8929 22.57 8.81258 22.57C6.73256 22.57 4.76507 22.1339 3.2744 21.3341C1.738 20.5099 0.85 19.3731 0.85 18.1159C0.85 16.9894 1.57869 15.9747 2.75593 15.2061C3.93539 14.4361 5.5856 13.8974 7.48728 13.7222C7.70405 13.7018 7.89514 13.8619 7.91491 14.0777C7.9347 14.2937 7.77598 14.4854 7.55948 14.5053L14.351 21.3338ZM14.351 21.3338C15.8872 20.5096 16.7752 19.3728 16.7752 18.1157L14.351 21.3338ZM10.138 13.7223C9.92218 13.7021 9.73007 13.8614 9.71025 14.0777M10.138 13.7223C10.138 13.7223 10.1381 13.7223 10.1381 13.7223L10.1241 13.8716L10.1379 13.7222C10.1379 13.7222 10.138 13.7222 10.138 13.7223ZM10.138 13.7223C12.0398 13.8973 13.69 14.4359 14.8694 15.2059C16.0466 15.9744 16.7753 16.9892 16.7752 18.1157L9.71025 14.0777M9.71025 14.0777C9.69046 14.2938 9.84919 14.4854 10.0657 14.5053L9.71025 14.0777ZM1.63637 18.1159C1.63637 17.312 2.1879 16.4911 3.25551 15.8181M1.63637 18.1159L3.25551 15.8181M3.25551 15.8181C4.34828 15.1295 5.87567 14.6605 7.5594 14.5053L3.25551 15.8181Z" fill="#808080" stroke="#808080" stroke-width="0.3"/>
</svg>
