<svg width="26" height="18" viewBox="0 0 26 18" fill="none" xmlns="http://www.w3.org/2000/svg">
<path d="M7.63624 10.0969C8.8199 10.0969 9.77114 8.98824 9.77114 7.641C9.77114 6.99918 9.55272 6.45094 9.17488 6.06291C8.79694 5.67479 8.26242 5.45 7.63624 5.45C7.01007 5.45 6.47555 5.67479 6.09761 6.06291C5.71977 6.45094 5.50135 6.99918 5.50135 7.641C5.50135 8.98824 6.45259 10.0969 7.63624 10.0969ZM7.63624 6.12329C8.06952 6.12329 8.42838 6.27618 8.67906 6.53996C8.92995 6.80397 9.07607 7.18288 9.07607 7.641C9.07607 8.63404 8.42101 9.42357 7.63624 9.42357C6.85148 9.42357 6.19642 8.63404 6.19642 7.641C6.19642 7.18288 6.34254 6.80397 6.59343 6.53996C6.84411 6.27618 7.20297 6.12329 7.63624 6.12329ZM7.41678 11.3408C6.38602 11.3408 5.51974 11.6269 4.91015 12.1305C4.29976 12.6347 3.95 13.3546 3.95 14.2134C3.95 14.4011 4.10734 14.55 4.29754 14.55C4.48773 14.55 4.64507 14.4011 4.64507 14.2134C4.64507 13.4015 5.0154 12.8543 5.54512 12.508C6.07726 12.1602 6.77223 12.0141 7.41678 12.0141H7.85571C8.50026 12.0141 9.19529 12.1602 9.72749 12.5081C10.2573 12.8544 10.6277 13.4015 10.6277 14.2134C10.6277 14.4011 10.785 14.55 10.9752 14.55C11.1654 14.55 11.3227 14.4011 11.3227 14.2134C11.3227 13.3545 10.9729 12.6346 10.3625 12.1304C9.75287 11.6269 8.88653 11.3408 7.85571 11.3408H7.41678Z" fill="#808080" stroke="#808080" stroke-width="0.1"/>
<path d="M23.4189 2.58407H15.3881V1.26315C15.3881 1.16148 15.3538 1.06899 15.2865 1.00167C15.2191 0.93434 15.1267 0.900015 15.025 0.900015H11.6569C11.5552 0.900015 11.4627 0.93434 11.3954 1.00167C11.3281 1.06899 11.2938 1.16148 11.2938 1.26315V2.58407H2.7893C1.76144 2.58407 0.9 3.41728 0.9 4.47337V15.8407C0.9 16.8686 1.73322 17.73 2.7893 17.73H23.4452C24.4731 17.73 25.3346 16.8968 25.3346 15.8407V4.47337H25.3346L25.3345 4.47074C25.3068 3.41816 24.4745 2.58407 23.4189 2.58407ZM12.02 1.62628H14.6619V4.26812H12.02V1.62628ZM24.582 15.8407C24.582 16.471 24.0728 17.0037 23.4189 17.0037H2.7893C2.15903 17.0037 1.62627 16.4946 1.62627 15.8407V4.47337C1.62627 3.84309 2.13543 3.31033 2.7893 3.31033H11.2938V4.63125C11.2938 4.73291 11.3281 4.82541 11.3954 4.89273C11.4627 4.96006 11.5552 4.99438 11.6569 4.99438H15.025C15.1267 4.99438 15.2191 4.96006 15.2865 4.89273C15.3538 4.82541 15.3881 4.73291 15.3881 4.63125V3.31033H23.4189C24.0492 3.31033 24.582 3.81949 24.582 4.47337V15.8407Z" fill="#808080" stroke="#808080" stroke-width="0.2"/>
<path d="M22.0507 8.34544H13.341C13.245 8.34544 13.1592 8.37776 13.0971 8.43977C13.0351 8.50178 13.0028 8.58759 13.0028 8.68357C13.0028 8.77956 13.0351 8.86537 13.0971 8.92738C13.1592 8.98938 13.245 9.02171 13.341 9.02171H22.0507C22.1466 9.02171 22.2325 8.98938 22.2945 8.92738C22.3565 8.86537 22.3888 8.77956 22.3888 8.68357C22.3888 8.58759 22.3565 8.50178 22.2945 8.43977C22.2325 8.37776 22.1466 8.34544 22.0507 8.34544Z" fill="#808080" stroke="#808080" stroke-width="0.15"/>
<path d="M18.0507 11.819H13.341C13.245 11.819 13.1592 11.8513 13.0971 11.9133C13.0351 11.9753 13.0028 12.0611 13.0028 12.1571C13.0028 12.2531 13.0351 12.3389 13.0971 12.4009C13.1592 12.4629 13.245 12.4952 13.341 12.4952H18.0507C18.1466 12.4952 18.2325 12.4629 18.2945 12.4009C18.3565 12.3389 18.3888 12.2531 18.3888 12.1571C18.3888 12.0611 18.3565 11.9753 18.2945 11.9133C18.2325 11.8513 18.1466 11.819 18.0507 11.819Z" fill="#808080" stroke="#808080" stroke-width="0.15"/>
</svg>
